<svg width="38" height="30" viewBox="0 0 38 30" fill="none" xmlns="http://www.w3.org/2000/svg">
<path opacity="0.2" d="M9.07619 30C7.32464 30 5.89156 29.6429 4.77694 28.9286C3.66232 28.2143 2.74674 27.3016 2.0302 26.1905C1.15443 24.9206 0.597117 23.5317 0.35827 22.0238C0.119423 20.5159 0 19.2857 0 18.3333C0 14.4444 0.995195 10.9127 2.98559 7.7381C4.97598 4.5635 8.08099 1.98413 12.3006 0L13.3754 2.14286C10.9073 3.1746 8.75772 4.80159 6.92656 7.02381C5.17502 9.24603 4.29925 11.5079 4.29925 13.8095C4.29925 14.7619 4.41867 15.5952 4.65752 16.3095C5.93137 15.2778 7.40426 14.7619 9.07619 14.7619C11.1462 14.7619 12.9375 15.4365 14.4502 16.7857C15.9629 18.1349 16.7193 20 16.7193 22.381C16.7193 24.6032 15.9629 26.4286 14.4502 27.8571C12.9375 29.2857 11.1462 30 9.07619 30ZM29.3782 30C27.6266 30 26.1936 29.6429 25.0789 28.9286C23.9643 28.2143 23.0487 27.3016 22.3322 26.1905C21.4564 24.9206 20.8991 23.5317 20.6603 22.0238C20.4214 20.5159 20.302 19.2857 20.302 18.3333C20.302 14.4444 21.2972 10.9127 23.2876 7.7381C25.278 4.5635 28.383 1.98413 32.6026 0L33.6774 2.14286C31.2093 3.1746 29.0597 4.80159 27.2286 7.02381C25.477 9.24603 24.6012 11.5079 24.6012 13.8095C24.6012 14.7619 24.7207 15.5952 24.9595 16.3095C26.2334 15.2778 27.7062 14.7619 29.3782 14.7619C31.4482 14.7619 33.2395 15.4365 34.7522 16.7857C36.2649 18.1349 37.0213 20 37.0213 22.381C37.0213 24.6032 36.2649 26.4286 34.7522 27.8571C33.2395 29.2857 31.4482 30 29.3782 30Z" fill="#38405E"/>
</svg>
